P3
# feep.ppm
24 7
255
255 255 255  255 255 255  255 255 255  255 255 255  255 255 255  255 255 255  255 255 255  255 255 255  255 255 255  255 255 255  255 255 255  255 255 255  255 255 255  255 255 255  255 255 255  255 255 255  255 255 255  255 255 255  255 255 255  255 255 255  255 255 255  255 255 255  255 255 255  255 255 255
255 255 255   31  31  31   31  31  31   31  31  31   31  31  31  255 255 255  255 255 255   64   0 255   64   0 255   64   0 255   64   0 255  255 255 255  255 255 255  255  64 128  255  64 128  255  64 128  255  64 128  255 255 255  255 255 255  128 255  64  128 255  64  128 255  64  128 255  64  255 255 255
255 255 255   31  31  31  255 255 255  255 255 255  255 255 255  255 255 255  255 255 255   64   0 255  255 255 255  255 255 255  255 255 255  255 255 255  255 255 255  255  64 128  255 255 255  255 255 255  255 255 255  255 255 255  255 255 255  128 255  64  255 255 255  255 255 255  128 255  64  255 255 255
255 255 255   31  31  31   31  31  31   31  31  31  255 255 255  255 255 255  255 255 255   64   0 255   64   0 255   64   0 255  255 255 255  255 255 255  255 255 255  255  64 128  255  64 128  255  64 128  255 255 255  255 255 255  255 255 255  128 255  64  128 255  64  128 255  64  128 255  64  255 255 255
255 255 255   31  31  31  255 255 255  255 255 255  255 255 255  255 255 255  255 255 255   64   0 255  255 255 255  255 255 255  255 255 255  255 255 255  255 255 255  255  64 128  255 255 255  255 255 255  255 255 255  255 255 255  255 255 255  128 255  64  255 255 255  255 255 255  255 255 255  255 255 255
255 255 255   31  31  31  255 255 255  255 255 255  255 255 255  255 255 255  255 255 255   64   0 255   64   0 255   64   0 255   64   0 255  255 255 255  255 255 255  255  64 128  255  64 128  255  64 128  255  64 128  255 255 255  255 255 255  128 255  64  255 255 255  255 255 255  255 255 255  255 255 255
255 255 255  255 255 255  255 255 255  255 255 255  255 255 255  255 255 255  255 255 255  255 255 255  255 255 255  255 255 255  255 255 255  255 255 255  255 255 255  255 255 255  255 255 255  255 255 255  255 255 255  255 255 255  255 255 255  255 255 255  255 255 255  255 255 255  255 255 255  255 255 255
